<svg width="340" height="540" viewBox="0 0 340 540" xmlns="http://www.w3.org/2000/svg">
  <!-- 
    Layout kho hàng.
    Quy ước tỉ lệ: 1 mét = 10 pixels.
    Kích thước kho: 30m x 50m (300x500 pixels).
    Kích thước kệ nhỏ: 1m x 3m (10x30 pixels).
  -->

  <!-- Tường kho (32m x 52m) -->
  <rect x="0" y="0" width="320" height="520" fill="#f9f9f9" stroke="#333" stroke-width="2"/>
  
  <!-- NG Area -->
  <g data-loc="NG" data-zone-border="ng">
    <rect x="255" y="15" width="50" height="50" fill="white" stroke="#333" stroke-width="1"/>
    <text x="280" y="40" font-family="Arial" font-size="10" text-anchor="middle" dominant-baseline="middle">NG</text>
  </g>

  <!-- Văn phòng & Khu vực trái -->
  <g font-family="Arial" text-anchor="middle" dominant-baseline="middle" transform="translate(-5, 0)">
      <!-- JIG Area -->
      <g data-loc="JIG">
        <rect x="15" y="11" width="80" height="59" fill="none" stroke="#333" stroke-width="1"/>
        <text x="55" y="41" font-size="10">JIG</text>
      </g>

      <!-- Quality Office -->
      <g data-loc="Quality">
        <rect x="15" y="70" width="70" height="60" fill="none" stroke="#333" stroke-width="1"/>
        <text x="50" y="100" font-size="10">Quality</text>
      </g>
      
      <!-- Secured WH -->
      <g data-loc="Secured WH">
        <rect x="15" y="130" width="75" height="200" fill="none" stroke="#333" stroke-width="1"/>
        <text x="50" y="320" font-size="10">Secured WH</text>
      </g>
      <!-- Kệ trong Secured WH -->
      <g font-size="3" data-zone-border="rack-green" text-anchor="middle" dominant-baseline="middle">
        <!-- Row Q: y=132 -->
        <g data-loc="Q3" data-cell-id="cell-q3"><rect x="17" y="132" width="15" height="10" fill="white" stroke="#000" stroke-width="0.5"/><text x="24.5" y="137" font-size="4">Q3</text></g>
        <g data-loc="Q2" data-cell-id="cell-q2"><rect x="34" y="132" width="15" height="10" fill="white" stroke="#000" stroke-width="0.5"/><text x="41.5" y="137" font-size="4">Q2</text></g>
        <g data-loc="Q1" data-cell-id="cell-q1"><rect x="51" y="132" width="15" height="10" fill="white" stroke="#000" stroke-width="0.5"/><text x="58.5" y="137" font-size="4">Q1</text></g>
        
        <!-- Kệ A12 -->
        <g data-loc="A12" data-cell-id="cell-a12">
          <rect x="66" y="132" width="9" height="10" fill="white" stroke="#000" stroke-width="0.5"/>
          <text x="70.5" y="137" font-size="4">A12</text>
        </g>
        <!-- Kệ H11 -->
        <g data-loc="H11" data-cell-id="cell-h11">
          <rect x="76" y="132" width="9" height="10" fill="white" stroke="#000" stroke-width="0.5"/>
          <text x="80.5" y="137" font-size="4">H11</text>
        </g>
        
        <!-- Row R: y=147 -->
        <g data-loc="R3(R)" data-loc-alias="RR3" data-cell-id="cell-r3r"><rect x="17" y="147" width="15" height="5" fill="white" stroke="#000" stroke-width="0.5"/><text x="24.5" y="149.5" font-size="3.5">R3(R)</text></g><g data-loc="R3(L)" data-loc-alias="RL3" data-cell-id="cell-r3l"><rect x="17" y="152" width="15" height="5" fill="white" stroke="#000" stroke-width="0.5"/><text x="24.5" y="154.5" font-size="3.5">R3(L)</text></g>
        <g data-loc="R2(R)" data-loc-alias="RR2" data-cell-id="cell-r2r"><rect x="34" y="147" width="15" height="5" fill="white" stroke="#000" stroke-width="0.5"/><text x="41.5" y="149.5" font-size="3.5">R2(R)</text></g><g data-loc="R2(L)" data-loc-alias="RL2" data-cell-id="cell-r2l"><rect x="34" y="152" width="15" height="5" fill="white" stroke="#000" stroke-width="0.5"/><text x="41.5" y="154.5" font-size="3.5">R2(L)</text></g>
        <g data-loc="R1(R)" data-loc-alias="RR1" data-cell-id="cell-r1r"><rect x="51" y="147" width="15" height="5" fill="white" stroke="#000" stroke-width="0.5"/><text x="58.5" y="149.5" font-size="3.5">R1(R)</text></g><g data-loc="R1(L)" data-loc-alias="RL1" data-cell-id="cell-r1l"><rect x="51" y="152" width="15" height="5" fill="white" stroke="#000" stroke-width="0.5"/><text x="58.5" y="154.5" font-size="3.5">R1(L)</text></g>
        <!-- Row S: y=162 -->
        <g data-loc="S3(R)" data-loc-alias="SR3" data-cell-id="cell-s3r"><rect x="17" y="162" width="15" height="5" fill="white" stroke="#000" stroke-width="0.5"/><text x="24.5" y="164.5" font-size="3.5">S3(R)</text></g><g data-loc="S3(L)" data-loc-alias="SL3" data-cell-id="cell-s3l"><rect x="17" y="167" width="15" height="5" fill="white" stroke="#000" stroke-width="0.5"/><text x="24.5" y="169.5" font-size="3.5">S3(L)</text></g>
        <g data-loc="S2(R)" data-loc-alias="SR2" data-cell-id="cell-s2r"><rect x="34" y="162" width="15" height="5" fill="white" stroke="#000" stroke-width="0.5"/><text x="41.5" y="164.5" font-size="3.5">S2(R)</text></g><g data-loc="S2(L)" data-loc-alias="SL2" data-cell-id="cell-s2l"><rect x="34" y="167" width="15" height="5" fill="white" stroke="#000" stroke-width="0.5"/><text x="41.5" y="169.5" font-size="3.5">S2(L)</text></g>
        <g data-loc="S1(R)" data-loc-alias="SR1" data-cell-id="cell-s1r"><rect x="51" y="162" width="15" height="5" fill="white" stroke="#000" stroke-width="0.5"/><text x="58.5" y="164.5" font-size="3.5">S1(R)</text></g><g data-loc="S1(L)" data-loc-alias="SL1" data-cell-id="cell-s1l"><rect x="51" y="167" width="15" height="5" fill="white" stroke="#000" stroke-width="0.5"/><text x="58.5" y="169.5" font-size="3.5">S1(L)</text></g>
        <!-- Row T: y=177 -->
        <g data-loc="T3(R)" data-loc-alias="TR3" data-cell-id="cell-t3r"><rect x="17" y="177" width="15" height="5" fill="white" stroke="#000" stroke-width="0.5"/><text x="24.5" y="179.5" font-size="3.5">T3(R)</text></g><g data-loc="T3(L)" data-loc-alias="TL3" data-cell-id="cell-t3l"><rect x="17" y="182" width="15" height="5" fill="white" stroke="#000" stroke-width="0.5"/><text x="24.5" y="184.5" font-size="3.5">T3(L)</text></g>
        <g data-loc="T2(R)" data-loc-alias="TR2" data-cell-id="cell-t2r"><rect x="34" y="177" width="15" height="5" fill="white" stroke="#000" stroke-width="0.5"/><text x="41.5" y="179.5" font-size="3.5">T2(R)</text></g><g data-loc="T2(L)" data-loc-alias="TL2" data-cell-id="cell-t2l"><rect x="34" y="182" width="15" height="5" fill="white" stroke="#000" stroke-width="0.5"/><text x="41.5" y="184.5" font-size="3.5">T2(L)</text></g>
        <g data-loc="T1(R)" data-loc-alias="TR1" data-cell-id="cell-t1r"><rect x="51" y="177" width="15" height="5" fill="white" stroke="#000" stroke-width="0.5"/><text x="58.5" y="179.5" font-size="3.5">T1(R)</text></g><g data-loc="T1(L)" data-loc-alias="TL1" data-cell-id="cell-t1l"><rect x="51" y="182" width="15" height="5" fill="white" stroke="#000" stroke-width="0.5"/><text x="58.5" y="184.5" font-size="3.5">T1(L)</text></g>
        <!-- Row U: y=192 -->
        <g data-loc="U3(R)" data-loc-alias="UR3" data-cell-id="cell-u3r"><rect x="17" y="192" width="15" height="5" fill="white" stroke="#000" stroke-width="0.5"/><text x="24.5" y="194.5" font-size="3.5">U3(R)</text></g><g data-loc="U3(L)" data-loc-alias="UL3" data-cell-id="cell-u3l"><rect x="17" y="197" width="15" height="5" fill="white" stroke="#000" stroke-width="0.5"/><text x="24.5" y="199.5" font-size="3.5">U3(L)</text></g>
        <g data-loc="U2(R)" data-loc-alias="UR2" data-cell-id="cell-u2r"><rect x="34" y="192" width="15" height="5" fill="white" stroke="#000" stroke-width="0.5"/><text x="41.5" y="194.5" font-size="3.5">U2(R)</text></g><g data-loc="U2(L)" data-loc-alias="UL2" data-cell-id="cell-u2l"><rect x="34" y="197" width="15" height="5" fill="white" stroke="#000" stroke-width="0.5"/><text x="41.5" y="199.5" font-size="3.5">U2(L)</text></g>
        <g data-loc="U1(R)" data-loc-alias="UR1" data-cell-id="cell-u1r"><rect x="51" y="192" width="15" height="5" fill="white" stroke="#000" stroke-width="0.5"/><text x="58.5" y="194.5" font-size="3.5">U1(R)</text></g><g data-loc="U1(L)" data-loc-alias="UL1" data-cell-id="cell-u1l"><rect x="51" y="197" width="15" height="5" fill="white" stroke="#000" stroke-width="0.5"/><text x="58.5" y="199.5" font-size="3.5">U1(L)</text></g>
        <!-- Row V: y=207 -->
        <g data-loc="V3(R)" data-loc-alias="VR3" data-cell-id="cell-v3r"><rect x="17" y="207" width="15" height="5" fill="white" stroke="#000" stroke-width="0.5"/><text x="24.5" y="209.5" font-size="3.5">V3(R)</text></g><g data-loc="V3(L)" data-loc-alias="VL3" data-cell-id="cell-v3l"><rect x="17" y="212" width="15" height="5" fill="white" stroke="#000" stroke-width="0.5"/><text x="24.5" y="214.5" font-size="3.5">V3(L)</text></g>
        <g data-loc="V2(R)" data-loc-alias="VR2" data-cell-id="cell-v2r"><rect x="34" y="207" width="15" height="5" fill="white" stroke="#000" stroke-width="0.5"/><text x="41.5" y="209.5" font-size="3.5">V2(R)</text></g><g data-loc="V2(L)" data-loc-alias="VL2" data-cell-id="cell-v2l"><rect x="34" y="212" width="15" height="5" fill="white" stroke="#000" stroke-width="0.5"/><text x="41.5" y="214.5" font-size="3.5">V2(L)</text></g>
        <g data-loc="V1(R)" data-loc-alias="VR1" data-cell-id="cell-v1r"><rect x="51" y="207" width="15" height="5" fill="white" stroke="#000" stroke-width="0.5"/><text x="58.5" y="209.5" font-size="3.5">V1(R)</text></g><g data-loc="V1(L)" data-loc-alias="VL1" data-cell-id="cell-v1l"><rect x="51" y="212" width="15" height="5" fill="white" stroke="#000" stroke-width="0.5"/><text x="58.5" y="214.5" font-size="3.5">V1(L)</text></g>
        <!-- Row W: y=222 -->
        <g data-loc="W3(R)" data-loc-alias="WR3" data-cell-id="cell-w3r"><rect x="17" y="222" width="15" height="5" fill="white" stroke="#000" stroke-width="0.5"/><text x="24.5" y="224.5" font-size="3.5">W3(R)</text></g><g data-loc="W3(L)" data-loc-alias="WL3" data-cell-id="cell-w3l"><rect x="17" y="227" width="15" height="5" fill="white" stroke="#000" stroke-width="0.5"/><text x="24.5" y="229.5" font-size="3.5">W3(L)</text></g>
        <g data-loc="W2(R)" data-loc-alias="WR2" data-cell-id="cell-w2r"><rect x="34" y="222" width="15" height="5" fill="white" stroke="#000" stroke-width="0.5"/><text x="41.5" y="224.5" font-size="3.5">W2(R)</text></g><g data-loc="W2(L)" data-loc-alias="WL2" data-cell-id="cell-w2l"><rect x="34" y="227" width="15" height="5" fill="white" stroke="#000" stroke-width="0.5"/><text x="41.5" y="229.5" font-size="3.5">W2(L)</text></g>
        <g data-loc="W1(R)" data-loc-alias="WR1" data-cell-id="cell-w1r"><rect x="51" y="222" width="15" height="5" fill="white" stroke="#000" stroke-width="0.5"/><text x="58.5" y="224.5" font-size="3.5">W1(R)</text></g><g data-loc="W1(L)" data-loc-alias="WL1" data-cell-id="cell-w1l"><rect x="51" y="227" width="15" height="5" fill="white" stroke="#000" stroke-width="0.5"/><text x="58.5" y="229.5" font-size="3.5">W1(L)</text></g>
        <!-- Row X: y=237 -->
        <g data-loc="X3(R)" data-loc-alias="XR3" data-cell-id="cell-x3r"><rect x="17" y="237" width="15" height="5" fill="white" stroke="#000" stroke-width="0.5"/><text x="24.5" y="239.5" font-size="3.5">X3(R)</text></g><g data-loc="X3(L)" data-loc-alias="XL3" data-cell-id="cell-x3l"><rect x="17" y="242" width="15" height="5" fill="white" stroke="#000" stroke-width="0.5"/><text x="24.5" y="244.5" font-size="3.5">X3(L)</text></g>
        <g data-loc="X2(R)" data-loc-alias="XR2" data-cell-id="cell-x2r"><rect x="34" y="237" width="15" height="5" fill="white" stroke="#000" stroke-width="0.5"/><text x="41.5" y="239.5" font-size="3.5">X2(R)</text></g><g data-loc="X2(L)" data-loc-alias="XL2" data-cell-id="cell-x2l"><rect x="34" y="242" width="15" height="5" fill="white" stroke="#000" stroke-width="0.5"/><text x="41.5" y="244.5" font-size="3.5">X2(L)</text></g>
        <g data-loc="X1(R)" data-loc-alias="XR1" data-cell-id="cell-x1r"><rect x="51" y="237" width="15" height="5" fill="white" stroke="#000" stroke-width="0.5"/><text x="58.5" y="239.5" font-size="3.5">X1(R)</text></g><g data-loc="X1(L)" data-loc-alias="XL1" data-cell-id="cell-x1l"><rect x="51" y="242" width="15" height="5" fill="white" stroke="#000" stroke-width="0.5"/><text x="58.5" y="244.5" font-size="3.5">X1(L)</text></g>
        <!-- Row Y: y=252 -->
        <g data-loc="Y3(R)" data-loc-alias="YR3" data-cell-id="cell-y3r"><rect x="17" y="252" width="15" height="5" fill="white" stroke="#000" stroke-width="0.5"/><text x="24.5" y="254.5" font-size="3.5">Y3(R)</text></g><g data-loc="Y3(L)" data-loc-alias="YL3" data-cell-id="cell-y3l"><rect x="17" y="257" width="15" height="5" fill="white" stroke="#000" stroke-width="0.5"/><text x="24.5" y="259.5" font-size="3.5">Y3(L)</text></g>
        <g data-loc="Y2(R)" data-loc-alias="YR2" data-cell-id="cell-y2r"><rect x="34" y="252" width="15" height="5" fill="white" stroke="#000" stroke-width="0.5"/><text x="41.5" y="254.5" font-size="3.5">Y2(R)</text></g><g data-loc="Y2(L)" data-loc-alias="YL2" data-cell-id="cell-y2l"><rect x="34" y="257" width="15" height="5" fill="white" stroke="#000" stroke-width="0.5"/><text x="41.5" y="259.5" font-size="3.5">Y2(L)</text></g>
        <g data-loc="Y1(R)" data-loc-alias="YR1" data-cell-id="cell-y1r"><rect x="51" y="252" width="15" height="5" fill="white" stroke="#000" stroke-width="0.5"/><text x="58.5" y="254.5" font-size="3.5">Y1(R)</text></g><g data-loc="Y1(L)" data-loc-alias="YL1" data-cell-id="cell-y1l"><rect x="51" y="257" width="15" height="5" fill="white" stroke="#000" stroke-width="0.5"/><text x="58.5" y="259.5" font-size="3.5">Y1(L)</text></g>
        <!-- Row Z: y=267 -->
        <g data-loc="Z3(R)" data-loc-alias="ZR3" data-cell-id="cell-z3r"><rect x="17" y="267" width="15" height="5" fill="white" stroke="#000" stroke-width="0.5"/><text x="24.5" y="269.5" font-size="3.5">Z3(R)</text></g><g data-loc="Z3(L)" data-loc-alias="ZL3" data-cell-id="cell-z3l"><rect x="17" y="272" width="15" height="5" fill="white" stroke="#000" stroke-width="0.5"/><text x="24.5" y="274.5" font-size="3.5">Z3(L)</text></g>
        <g data-loc="Z2(R)" data-loc-alias="ZR2" data-cell-id="cell-z2r"><rect x="34" y="267" width="15" height="5" fill="white" stroke="#000" stroke-width="0.5"/><text x="41.5" y="269.5" font-size="3.5">Z2(R)</text></g><g data-loc="Z2(L)" data-loc-alias="ZL2" data-cell-id="cell-z2l"><rect x="34" y="272" width="15" height="5" fill="white" stroke="#000" stroke-width="0.5"/><text x="41.5" y="274.5" font-size="3.5">Z2(L)</text></g>
        <g data-loc="Z1(R)" data-loc-alias="ZR1" data-cell-id="cell-z1r"><rect x="51" y="267" width="15" height="5" fill="white" stroke="#000" stroke-width="0.5"/><text x="58.5" y="269.5" font-size="3.5">Z1(R)</text></g><g data-loc="Z1(L)" data-loc-alias="ZL1" data-cell-id="cell-z1l"><rect x="51" y="272" width="15" height="5" fill="white" stroke="#000" stroke-width="0.5"/><text x="58.5" y="274.5" font-size="3.5">Z1(L)</text></g>
        <!-- Row O: y=282 -->
        <g data-loc="O3(R)" data-loc-alias="OR3" data-cell-id="cell-o3r"><rect x="17" y="282" width="15" height="5" fill="white" stroke="#000" stroke-width="0.5"/><text x="24.5" y="284.5" font-size="3.5">O3(R)</text></g><g data-loc="O3(L)" data-loc-alias="OL3" data-cell-id="cell-o3l"><rect x="17" y="287" width="15" height="5" fill="white" stroke="#000" stroke-width="0.5"/><text x="24.5" y="289.5" font-size="3.5">O3(L)</text></g>
        <g data-loc="Frigde" data-loc-alias="Fridge" data-cell-id="cell-fridge"><rect x="17" y="297" width="15" height="5" fill="white" stroke="#000" stroke-width="0.5"/><text x="24.5" y="299.5" font-size="3">Frigde</text></g>
        <g data-loc="O2(R)" data-loc-alias="OR2" data-cell-id="cell-o2r"><rect x="34" y="282" width="15" height="5" fill="white" stroke="#000" stroke-width="0.5"/><text x="41.5" y="284.5" font-size="3.5">O2(R)</text></g><g data-loc="O2(L)" data-loc-alias="OL2" data-cell-id="cell-o2l"><rect x="34" y="287" width="15" height="5" fill="white" stroke="#000" stroke-width="0.5"/><text x="41.5" y="289.5" font-size="3.5">O2(L)</text></g>
        <g data-loc="O1(R)" data-loc-alias="OR1" data-cell-id="cell-o1r"><rect x="51" y="282" width="15" height="5" fill="white" stroke="#000" stroke-width="0.5"/><text x="58.5" y="284.5" font-size="3.5">O1(R)</text></g><g data-loc="O1(L)" data-loc-alias="OL1" data-cell-id="cell-o1l"><rect x="51" y="287" width="15" height="5" fill="white" stroke="#000" stroke-width="0.5"/><text x="58.5" y="289.5" font-size="3.5">O1(L)</text></g>
        <!-- Locker: bên phải O1(R), cách 20px (2m) — mọi Locker+N ghi nhận chung Locker -->
        <g data-loc="Locker1" data-loc-alias="Locker" data-cell-id="cell-locker1"><rect x="68" y="282" width="9" height="5" fill="white" stroke="#000" stroke-width="0.5"/><text x="72.5" y="284.5" font-size="2.8">Locker1</text></g>
        <g data-loc="Locker2" data-loc-alias="Locker" data-cell-id="cell-locker2"><rect x="68" y="287" width="9" height="5" fill="white" stroke="#000" stroke-width="0.5"/><text x="72.5" y="289.5" font-size="2.8">Locker2</text></g>
      </g>
      
      <!-- Kệ K (bên trong office) -->
      <g data-loc="K" data-zone-border="k-dashed" data-cell-id="cell-k">
        <rect x="79" y="150" width="5" height="80" fill="white" stroke="#000" stroke-width="0.5" stroke-dasharray="3,3"/>
        <text x="81.5" y="190" font-size="8">K</text>
      </g>

      <!-- WH Office -->
      <g data-loc="WH Office">
        <rect x="15" y="330" width="70" height="80" fill="none" stroke="#333" stroke-width="1"/>
        <text x="50" y="370" font-size="10">WH Office</text>
      </g>
      <!-- Kệ trong WH Office -->
      <g data-loc="VP" data-cell-id="cell-vp">
        <rect x="65" y="400" width="20" height="10" fill="white" stroke="#000" stroke-width="0.5"/>
        <text x="75" y="405" font-size="6" text-anchor="middle" dominant-baseline="middle">VP</text>
      </g>
      
      <!-- Khu vực J — MIXZONE -->
      <g data-loc="J" data-zone-border="mixzone">
        <rect x="15" y="410" width="70" height="60" fill="none" stroke="#333" stroke-width="1" stroke-dasharray="3,3"/>
        <text x="50" y="432" font-size="10">J</text>
        <text x="50" y="448" font-size="7" fill="#000">MIXZONE</text>
      </g>

      <!-- Forklift Area -->
      <g data-loc="Forklift" data-zone-border="forklift">
        <rect x="15" y="480" width="70" height="28" fill="none" stroke="#333" stroke-width="1" stroke-dasharray="3,3"/>
        <text x="50" y="494" font-size="10" text-anchor="middle" dominant-baseline="middle">Forklift</text>
      </g>
  </g>

  <!-- Kệ IQC và W.O -->
  <g font-family="Arial">
    <g data-loc="IQC" data-loc-alias="IQC Pending Area" data-zone-border="iqc" data-cell-id="cell-iqc">
      <rect x="100" y="210" width="10" height="180" fill="white" stroke="#000" stroke-width="0.5" stroke-dasharray="3,3"/>
      <text x="105" y="300" font-size="5.5" transform="rotate(-90 105,300)" text-anchor="middle" dominant-baseline="middle">IQC Pending Area</text>
    </g>
    <!-- Khoảng trống giữa Secured WH và IQC Pending -->
    <g data-loc="Temporary 8" data-cell-id="cell-temp8">
      <text x="90" y="270" font-size="5" transform="rotate(-90 90,270)" text-anchor="middle" dominant-baseline="middle" fill="#333">Temporary 8</text>
    </g>
    <g data-loc="WO" data-loc-alias="W.O to P.D" data-zone-border="wo" data-cell-id="cell-wo">
      <rect x="100" y="90" width="10" height="90" fill="white" stroke="#000" stroke-width="0.5" stroke-dasharray="3,3"/>
      <text x="105" y="135" font-size="6" transform="rotate(-90 105,135)" text-anchor="middle" dominant-baseline="middle">W.O to P.D</text>
    </g>
  </g>

  <!-- INBOUND & Outbound Stages -->
  <g font-family="Arial" text-anchor="middle" dominant-baseline="middle">
    <!-- Inbound Stage -->
    <g data-loc="Inbound Stage" data-zone-border="inbound">
      <rect x="100" y="420" width="100" height="80" fill="none" stroke="#333" stroke-width="1" stroke-dasharray="3,3"/>
      <text x="150" y="460" font-size="8">Inbound Stage</text>
    </g>
    <!-- Outbound Stage -->
    <g data-loc="Outbound Stage" data-zone-border="outbound">
      <rect x="235" y="420" width="70" height="80" fill="none" stroke="#333" stroke-width="1" stroke-dasharray="3,3"/>
      <text x="270" y="460" font-size="8">Outbound Stage</text>
    </g>
  </g>

  <!-- Các dãy kệ -->
  <g font-family="Arial" font-size="6" text-anchor="middle" dominant-baseline="middle">
    <!-- Dãy A (x=295) -->
    <g data-loc="A9" data-cell-id="cell-a9"><rect x="295" y="90" width="10" height="30" fill="white" stroke="#000" stroke-width="0.5"/><text x="300" y="105">A9</text></g>
    <g data-loc="A8" data-cell-id="cell-a8"><rect x="295" y="120" width="10" height="30" fill="white" stroke="#000" stroke-width="0.5"/><text x="300" y="135">A8</text></g>
    <g data-loc="A7" data-cell-id="cell-a7"><rect x="295" y="150" width="10" height="30" fill="white" stroke="#000" stroke-width="0.5"/><text x="300" y="165">A7</text></g>
    <g data-loc="A6" data-cell-id="cell-a6"><rect x="295" y="210" width="10" height="30" fill="white" stroke="#000" stroke-width="0.5"/><text x="300" y="225">A6</text></g>
    <g data-loc="A5" data-cell-id="cell-a5"><rect x="295" y="240" width="10" height="30" fill="white" stroke="#000" stroke-width="0.5"/><text x="300" y="255">A5</text></g>
    <g data-loc="A4" data-cell-id="cell-a4"><rect x="295" y="270" width="10" height="30" fill="white" stroke="#000" stroke-width="0.5"/><text x="300" y="285">A4</text></g>
    <g data-loc="A3" data-cell-id="cell-a3"><rect x="295" y="300" width="10" height="30" fill="white" stroke="#000" stroke-width="0.5"/><text x="300" y="315">A3</text></g>
    <g data-loc="A2" data-cell-id="cell-a2"><rect x="295" y="330" width="10" height="30" fill="white" stroke="#000" stroke-width="0.5"/><text x="300" y="345">A2</text></g>
    <g data-loc="A1" data-cell-id="cell-a1"><rect x="295" y="360" width="10" height="30" fill="white" stroke="#000" stroke-width="0.5"/><text x="300" y="375">A1</text></g>
    <!-- Dãy B (x=255) -->
    <g data-loc="B9" data-cell-id="cell-b9"><rect x="255" y="90" width="10" height="30" fill="white" stroke="#000" stroke-width="0.5"/><text x="260" y="105">B9</text></g>
    <g data-loc="B8" data-cell-id="cell-b8"><rect x="255" y="120" width="10" height="30" fill="white" stroke="#000" stroke-width="0.5"/><text x="260" y="135">B8</text></g>
    <g data-loc="B7" data-cell-id="cell-b7"><rect x="255" y="150" width="10" height="30" fill="white" stroke="#000" stroke-width="0.5"/><text x="260" y="165">B7</text></g>
    <g data-loc="B6" data-cell-id="cell-b6"><rect x="255" y="210" width="10" height="30" fill="white" stroke="#000" stroke-width="0.5"/><text x="260" y="225">B6</text></g>
    <g data-loc="B5" data-cell-id="cell-b5"><rect x="255" y="240" width="10" height="30" fill="white" stroke="#000" stroke-width="0.5"/><text x="260" y="255">B5</text></g>
    <g data-loc="B4" data-cell-id="cell-b4"><rect x="255" y="270" width="10" height="30" fill="white" stroke="#000" stroke-width="0.5"/><text x="260" y="285">B4</text></g>
    <g data-loc="B3" data-cell-id="cell-b3"><rect x="255" y="300" width="10" height="30" fill="white" stroke="#000" stroke-width="0.5"/><text x="260" y="315">B3</text></g>
    <g data-loc="B2" data-cell-id="cell-b2"><rect x="255" y="330" width="10" height="30" fill="white" stroke="#000" stroke-width="0.5"/><text x="260" y="345">B2</text></g>
    <g data-loc="B1" data-cell-id="cell-b1"><rect x="255" y="360" width="10" height="30" fill="white" stroke="#000" stroke-width="0.5"/><text x="260" y="375">B1</text></g>
    <!-- Khoảng trống giữa dãy A và B -->
    <g data-loc="Temporary 2" data-cell-id="cell-temp2">
      <text x="280" y="135" font-size="5" transform="rotate(-90 280,135)" text-anchor="middle" dominant-baseline="middle" fill="#333">Temporary 2</text>
    </g>
    <!-- Dãy C (x=240) -->
    <g data-loc="C9" data-cell-id="cell-c9"><rect x="240" y="90" width="10" height="30" fill="white" stroke="#000" stroke-width="0.5"/><text x="245" y="105">C9</text></g>
    <g data-loc="C8" data-cell-id="cell-c8"><rect x="240" y="120" width="10" height="30" fill="white" stroke="#000" stroke-width="0.5"/><text x="245" y="135">C8</text></g>
    <g data-loc="C7" data-cell-id="cell-c7"><rect x="240" y="150" width="10" height="30" fill="white" stroke="#000" stroke-width="0.5"/><text x="245" y="165">C7</text></g>
    <g data-loc="C6" data-cell-id="cell-c6"><rect x="240" y="210" width="10" height="30" fill="white" stroke="#000" stroke-width="0.5"/><text x="245" y="225">C6</text></g>
    <g data-loc="C5" data-cell-id="cell-c5"><rect x="240" y="240" width="10" height="30" fill="white" stroke="#000" stroke-width="0.5"/><text x="245" y="255">C5</text></g>
    <g data-loc="C4" data-cell-id="cell-c4"><rect x="240" y="270" width="10" height="30" fill="white" stroke="#000" stroke-width="0.5"/><text x="245" y="285">C4</text></g>
    <g data-loc="C3" data-cell-id="cell-c3"><rect x="240" y="300" width="10" height="30" fill="white" stroke="#000" stroke-width="0.5"/><text x="245" y="315">C3</text></g>
    <g data-loc="C2" data-cell-id="cell-c2"><rect x="240" y="330" width="10" height="30" fill="white" stroke="#000" stroke-width="0.5"/><text x="245" y="345">C2</text></g>
    <g data-loc="C1" data-cell-id="cell-c1"><rect x="240" y="360" width="10" height="30" fill="white" stroke="#000" stroke-width="0.5"/><text x="245" y="375">C1</text></g>
    <!-- Dãy D (x=200) -->
    <g data-loc="D9" data-cell-id="cell-d9"><rect x="200" y="90" width="10" height="30" fill="white" stroke="#000" stroke-width="0.5"/><text x="205" y="105">D9</text></g>
    <g data-loc="D8" data-cell-id="cell-d8"><rect x="200" y="120" width="10" height="30" fill="white" stroke="#000" stroke-width="0.5"/><text x="205" y="135">D8</text></g>
    <g data-loc="D7" data-cell-id="cell-d7"><rect x="200" y="150" width="10" height="30" fill="white" stroke="#000" stroke-width="0.5"/><text x="205" y="165">D7</text></g>
    <g data-loc="D6" data-cell-id="cell-d6"><rect x="200" y="210" width="10" height="30" fill="white" stroke="#000" stroke-width="0.5"/><text x="205" y="225">D6</text></g>
    <g data-loc="D5" data-cell-id="cell-d5"><rect x="200" y="240" width="10" height="30" fill="white" stroke="#000" stroke-width="0.5"/><text x="205" y="255">D5</text></g>
    <g data-loc="D4" data-cell-id="cell-d4"><rect x="200" y="270" width="10" height="30" fill="white" stroke="#000" stroke-width="0.5"/><text x="205" y="285">D4</text></g>
    <g data-loc="D3" data-cell-id="cell-d3"><rect x="200" y="300" width="10" height="30" fill="white" stroke="#000" stroke-width="0.5"/><text x="205" y="315">D3</text></g>
    <g data-loc="D2" data-cell-id="cell-d2"><rect x="200" y="330" width="10" height="30" fill="white" stroke="#000" stroke-width="0.5"/><text x="205" y="345">D2</text></g>
    <g data-loc="D1" data-cell-id="cell-d1"><rect x="200" y="360" width="10" height="30" fill="white" stroke="#000" stroke-width="0.5"/><text x="205" y="375">D1</text></g>
    <!-- Khoảng trống giữa dãy C và D -->
    <g data-loc="Temporary 4" data-cell-id="cell-temp4">
      <text x="225" y="135" font-size="5" transform="rotate(-90 225,135)" text-anchor="middle" dominant-baseline="middle" fill="#333">Temporary 4</text>
    </g>
    <!-- Dãy E (x=185) -->
    <g data-loc="E9" data-cell-id="cell-e9"><rect x="185" y="90" width="10" height="30" fill="white" stroke="#000" stroke-width="0.5"/><text x="190" y="105">E9</text></g>
    <g data-loc="E8" data-cell-id="cell-e8"><rect x="185" y="120" width="10" height="30" fill="white" stroke="#000" stroke-width="0.5"/><text x="190" y="135">E8</text></g>
    <g data-loc="E7" data-cell-id="cell-e7"><rect x="185" y="150" width="10" height="30" fill="white" stroke="#000" stroke-width="0.5"/><text x="190" y="165">E7</text></g>
    <g data-loc="E6" data-cell-id="cell-e6"><rect x="185" y="210" width="10" height="30" fill="white" stroke="#000" stroke-width="0.5"/><text x="190" y="225">E6</text></g>
    <g data-loc="E5" data-cell-id="cell-e5"><rect x="185" y="240" width="10" height="30" fill="white" stroke="#000" stroke-width="0.5"/><text x="190" y="255">E5</text></g>
    <g data-loc="E4" data-cell-id="cell-e4"><rect x="185" y="270" width="10" height="30" fill="white" stroke="#000" stroke-width="0.5"/><text x="190" y="285">E4</text></g>
    <g data-loc="E3" data-cell-id="cell-e3"><rect x="185" y="300" width="10" height="30" fill="white" stroke="#000" stroke-width="0.5"/><text x="190" y="315">E3</text></g>
    <g data-loc="E2" data-cell-id="cell-e2"><rect x="185" y="330" width="10" height="30" fill="white" stroke="#000" stroke-width="0.5"/><text x="190" y="345">E2</text></g>
    <g data-loc="E1" data-cell-id="cell-e1"><rect x="185" y="360" width="10" height="30" fill="white" stroke="#000" stroke-width="0.5"/><text x="190" y="375">E1</text></g>
    <!-- Khoảng trống giữa dãy E và F -->
    <g data-loc="Temporary 6" data-cell-id="cell-temp6">
      <text x="170" y="135" font-size="5" transform="rotate(-90 170,135)" text-anchor="middle" dominant-baseline="middle" fill="#333">Temporary 6</text>
    </g>
    <!-- Dãy F (x=145) -->
    <!-- Khu MIXZONE P: gom F7–F9 + G7–G9 -->
    <g data-loc="P" data-loc-alias="F7,F8,F9,G7,G8,G9" data-zone-border="mixzone">
      <rect x="130" y="90" width="25" height="90" fill="white" stroke="#000" stroke-width="1"/>
      <g data-shelf="G9"><rect class="lw-zone-inner" x="130" y="90" width="10" height="30" fill="white" stroke="none"/></g>
      <g data-shelf="G8"><rect class="lw-zone-inner" x="130" y="120" width="10" height="30" fill="white" stroke="none"/></g>
      <g data-shelf="G7"><rect class="lw-zone-inner" x="130" y="150" width="10" height="30" fill="white" stroke="none"/></g>
      <g data-shelf="F9"><rect class="lw-zone-inner" x="145" y="90" width="10" height="30" fill="white" stroke="none"/></g>
      <g data-shelf="F8"><rect class="lw-zone-inner" x="145" y="120" width="10" height="30" fill="white" stroke="none"/></g>
      <g data-shelf="F7"><rect class="lw-zone-inner" x="145" y="150" width="10" height="30" fill="white" stroke="none"/></g>
      <text x="142.5" y="124" font-size="9" font-weight="bold">P</text>
      <text x="142.5" y="136" font-size="6" fill="#000">MIXZONE</text>
    </g>
    <g data-loc="F6" data-cell-id="cell-f6"><rect x="145" y="210" width="10" height="30" fill="white" stroke="#000" stroke-width="0.5"/><text x="150" y="225">F6</text></g>
    <g data-loc="F5" data-cell-id="cell-f5"><rect x="145" y="240" width="10" height="30" fill="white" stroke="#000" stroke-width="0.5"/><text x="150" y="255">F5</text></g>
    <g data-loc="F4" data-cell-id="cell-f4"><rect x="145" y="270" width="10" height="30" fill="white" stroke="#000" stroke-width="0.5"/><text x="150" y="285">F4</text></g>
    <g data-loc="F3" data-cell-id="cell-f3"><rect x="145" y="300" width="10" height="30" fill="white" stroke="#000" stroke-width="0.5"/><text x="150" y="315">F3</text></g>
    <g data-loc="F2" data-cell-id="cell-f2"><rect x="145" y="330" width="10" height="30" fill="white" stroke="#000" stroke-width="0.5"/><text x="150" y="345">F2</text></g>
    <g data-loc="F1" data-cell-id="cell-f1"><rect x="145" y="360" width="10" height="30" fill="white" stroke="#000" stroke-width="0.5"/><text x="150" y="375">F1</text></g>
    <!-- Dãy G (x=130) -->
    <g data-loc="G6" data-cell-id="cell-g6"><rect x="130" y="210" width="10" height="30" fill="white" stroke="#000" stroke-width="0.5"/><text x="135" y="225">G6</text></g>
    <g data-loc="G5" data-cell-id="cell-g5"><rect x="130" y="240" width="10" height="30" fill="white" stroke="#000" stroke-width="0.5"/><text x="135" y="255">G5</text></g>
    <g data-loc="G4" data-cell-id="cell-g4"><rect x="130" y="270" width="10" height="30" fill="white" stroke="#000" stroke-width="0.5"/><text x="135" y="285">G4</text></g>
    <g data-loc="G3" data-cell-id="cell-g3"><rect x="130" y="300" width="10" height="30" fill="white" stroke="#000" stroke-width="0.5"/><text x="135" y="315">G3</text></g>
    <g data-loc="G2" data-cell-id="cell-g2"><rect x="130" y="330" width="10" height="30" fill="white" stroke="#000" stroke-width="0.5"/><text x="135" y="345">G2</text></g>
    <g data-loc="G1" data-cell-id="cell-g1"><rect x="130" y="360" width="10" height="30" fill="white" stroke="#000" stroke-width="0.5"/><text x="135" y="375">G1</text></g>
  </g>
</svg>
