<svg width="320" height="520" viewBox="0 0 320 520" xmlns="http://www.w3.org/2000/svg">
  <!-- 
    Layout kho hàng.
    Quy ước tỉ lệ: 1 mét = 10 pixels.
    Kích thước kho: 30m x 50m (300x500 pixels).
    Kích thước kệ nhỏ: 1m x 3m (10x30 pixels).
  -->

  <!-- Tường kho (30m x 50m) -->
  <rect x="10" y="10" width="300" height="500" fill="#f9f9f9" stroke="#333" stroke-width="2"/>
  
  <!-- NG Area -->
  <g data-loc="NG">
    <rect x="255" y="15" width="50" height="50" fill="white" stroke="#333" stroke-width="1"/>
    <text x="280" y="40" font-family="Arial" font-size="10" text-anchor="middle" dominant-baseline="middle">NG</text>
  </g>

  <!-- Văn phòng & Khu vực trái -->
  <g font-family="Arial" text-anchor="middle" dominant-baseline="middle" transform="translate(-5, 0)">
      <!-- Admin Area -->
      <g data-loc="Admin">
        <rect x="15" y="11" width="80" height="59" fill="none" stroke="#333" stroke-width="1"/>
        <text x="55" y="41" font-size="10">Admin</text>
      </g>

      <!-- Quality Office -->
      <g data-loc="Quality">
        <rect x="15" y="70" width="70" height="60" fill="none" stroke="#333" stroke-width="1"/>
        <text x="50" y="100" font-size="10">Quality</text>
      </g>
      
      <!-- Unnamed Office -->
      <rect x="15" y="130" width="70" height="200" fill="none" stroke="#333" stroke-width="1"/>
      <!-- Kệ trong Unnamed Office -->
      <g font-size="3" text-anchor="middle" dominant-baseline="middle">
        <!-- Row Q: y=132 -->
        <g data-loc="Q3" data-cell-id="cell-q3"><rect x="17" y="132" width="15" height="10" fill="white" stroke="#000" stroke-width="0.5"/><text x="24.5" y="137" font-size="4">Q3</text></g>
        <g data-loc="Q2" data-cell-id="cell-q2"><rect x="34" y="132" width="15" height="10" fill="white" stroke="#000" stroke-width="0.5"/><text x="41.5" y="137" font-size="4">Q2</text></g>
        <g data-loc="Q1" data-cell-id="cell-q1"><rect x="51" y="132" width="15" height="10" fill="white" stroke="#000" stroke-width="0.5"/><text x="58.5" y="137" font-size="4">Q1</text></g>
        
        <!-- Kệ A12 -->
        <g data-loc="A12" data-cell-id="cell-a12">
          <rect x="71" y="132" width="10" height="10" fill="white" stroke="#000" stroke-width="0.5"/>
          <text x="76" y="137" font-size="4">A12</text>
        </g>
        
        <!-- Row R: y=147 -->
        <g data-loc="RR3" data-cell-id="cell-rr3"><rect x="17" y="147" width="15" height="5" fill="white" stroke="#000" stroke-width="0.5"/><text x="24.5" y="149.5">RR3</text></g><g data-loc="RL3" data-cell-id="cell-rl3"><rect x="17" y="152" width="15" height="5" fill="white" stroke="#000" stroke-width="0.5"/><text x="24.5" y="154.5">RL3</text></g>
        <g data-loc="RR2" data-cell-id="cell-rr2"><rect x="34" y="147" width="15" height="5" fill="white" stroke="#000" stroke-width="0.5"/><text x="41.5" y="149.5">RR2</text></g><g data-loc="RL2" data-cell-id="cell-rl2"><rect x="34" y="152" width="15" height="5" fill="white" stroke="#000" stroke-width="0.5"/><text x="41.5" y="154.5">RL2</text></g>
        <g data-loc="RR1" data-cell-id="cell-rr1"><rect x="51" y="147" width="15" height="5" fill="white" stroke="#000" stroke-width="0.5"/><text x="58.5" y="149.5">RR1</text></g><g data-loc="RL1" data-cell-id="cell-rl1"><rect x="51" y="152" width="15" height="5" fill="white" stroke="#000" stroke-width="0.5"/><text x="58.5" y="154.5">RL1</text></g>
        <!-- Row S: y=162 -->
        <g data-loc="SR3" data-cell-id="cell-sr3"><rect x="17" y="162" width="15" height="5" fill="white" stroke="#000" stroke-width="0.5"/><text x="24.5" y="164.5">SR3</text></g><g data-loc="SL3" data-cell-id="cell-sl3"><rect x="17" y="167" width="15" height="5" fill="white" stroke="#000" stroke-width="0.5"/><text x="24.5" y="169.5">SL3</text></g>
        <g data-loc="SR2" data-cell-id="cell-sr2"><rect x="34" y="162" width="15" height="5" fill="white" stroke="#000" stroke-width="0.5"/><text x="41.5" y="164.5">SR2</text></g><g data-loc="SL2" data-cell-id="cell-sl2"><rect x="34" y="167" width="15" height="5" fill="white" stroke="#000" stroke-width="0.5"/><text x="41.5" y="169.5">SL2</text></g>
        <g data-loc="SR1" data-cell-id="cell-sr1"><rect x="51" y="162" width="15" height="5" fill="white" stroke="#000" stroke-width="0.5"/><text x="58.5" y="164.5">SR1</text></g><g data-loc="SL1" data-cell-id="cell-sl1"><rect x="51" y="167" width="15" height="5" fill="white" stroke="#000" stroke-width="0.5"/><text x="58.5" y="169.5">SL1</text></g>
        <!-- Row T: y=177 -->
        <g data-loc="TR3" data-cell-id="cell-tr3"><rect x="17" y="177" width="15" height="5" fill="white" stroke="#000" stroke-width="0.5"/><text x="24.5" y="179.5">TR3</text></g><g data-loc="TL3" data-cell-id="cell-tl3"><rect x="17" y="182" width="15" height="5" fill="white" stroke="#000" stroke-width="0.5"/><text x="24.5" y="184.5">TL3</text></g>
        <g data-loc="TR2" data-cell-id="cell-tr2"><rect x="34" y="177" width="15" height="5" fill="white" stroke="#000" stroke-width="0.5"/><text x="41.5" y="179.5">TR2</text></g><g data-loc="TL2" data-cell-id="cell-tl2"><rect x="34" y="182" width="15" height="5" fill="white" stroke="#000" stroke-width="0.5"/><text x="41.5" y="184.5">TL2</text></g>
        <g data-loc="TR1" data-cell-id="cell-tr1"><rect x="51" y="177" width="15" height="5" fill="white" stroke="#000" stroke-width="0.5"/><text x="58.5" y="179.5">TR1</text></g><g data-loc="TL1" data-cell-id="cell-tl1"><rect x="51" y="182" width="15" height="5" fill="white" stroke="#000" stroke-width="0.5"/><text x="58.5" y="184.5">TL1</text></g>
        <!-- Row U: y=192 -->
        <g data-loc="UR3" data-cell-id="cell-ur3"><rect x="17" y="192" width="15" height="5" fill="white" stroke="#000" stroke-width="0.5"/><text x="24.5" y="194.5">UR3</text></g><g data-loc="UL3" data-cell-id="cell-ul3"><rect x="17" y="197" width="15" height="5" fill="white" stroke="#000" stroke-width="0.5"/><text x="24.5" y="199.5">UL3</text></g>
        <g data-loc="UR2" data-cell-id="cell-ur2"><rect x="34" y="192" width="15" height="5" fill="white" stroke="#000" stroke-width="0.5"/><text x="41.5" y="194.5">UR2</text></g><g data-loc="UL2" data-cell-id="cell-ul2"><rect x="34" y="197" width="15" height="5" fill="white" stroke="#000" stroke-width="0.5"/><text x="41.5" y="199.5">UL2</text></g>
        <g data-loc="UR1" data-cell-id="cell-ur1"><rect x="51" y="192" width="15" height="5" fill="white" stroke="#000" stroke-width="0.5"/><text x="58.5" y="194.5">UR1</text></g><g data-loc="UL1" data-cell-id="cell-ul1"><rect x="51" y="197" width="15" height="5" fill="white" stroke="#000" stroke-width="0.5"/><text x="58.5" y="199.5">UL1</text></g>
        <!-- Row V: y=207 -->
        <g data-loc="VR3" data-cell-id="cell-vr3"><rect x="17" y="207" width="15" height="5" fill="white" stroke="#000" stroke-width="0.5"/><text x="24.5" y="209.5">VR3</text></g><g data-loc="VL3" data-cell-id="cell-vl3"><rect x="17" y="212" width="15" height="5" fill="white" stroke="#000" stroke-width="0.5"/><text x="24.5" y="214.5">VL3</text></g>
        <g data-loc="VR2" data-cell-id="cell-vr2"><rect x="34" y="207" width="15" height="5" fill="white" stroke="#000" stroke-width="0.5"/><text x="41.5" y="209.5">VR2</text></g><g data-loc="VL2" data-cell-id="cell-vl2"><rect x="34" y="212" width="15" height="5" fill="white" stroke="#000" stroke-width="0.5"/><text x="41.5" y="214.5">VL2</text></g>
        <g data-loc="VR1" data-cell-id="cell-vr1"><rect x="51" y="207" width="15" height="5" fill="white" stroke="#000" stroke-width="0.5"/><text x="58.5" y="209.5">VR1</text></g><g data-loc="VL1" data-cell-id="cell-vl1"><rect x="51" y="212" width="15" height="5" fill="white" stroke="#000" stroke-width="0.5"/><text x="58.5" y="214.5">VL1</text></g>
        <!-- Row W: y=222 -->
        <g data-loc="WR3" data-cell-id="cell-wr3"><rect x="17" y="222" width="15" height="5" fill="white" stroke="#000" stroke-width="0.5"/><text x="24.5" y="224.5">WR3</text></g><g data-loc="WL3" data-cell-id="cell-wl3"><rect x="17" y="227" width="15" height="5" fill="white" stroke="#000" stroke-width="0.5"/><text x="24.5" y="229.5">WL3</text></g>
        <g data-loc="WR2" data-cell-id="cell-wr2"><rect x="34" y="222" width="15" height="5" fill="white" stroke="#000" stroke-width="0.5"/><text x="41.5" y="224.5">WR2</text></g><g data-loc="WL2" data-cell-id="cell-wl2"><rect x="34" y="227" width="15" height="5" fill="white" stroke="#000" stroke-width="0.5"/><text x="41.5" y="229.5">WL2</text></g>
        <g data-loc="WR1" data-cell-id="cell-wr1"><rect x="51" y="222" width="15" height="5" fill="white" stroke="#000" stroke-width="0.5"/><text x="58.5" y="224.5">WR1</text></g><g data-loc="WL1" data-cell-id="cell-wl1"><rect x="51" y="227" width="15" height="5" fill="white" stroke="#000" stroke-width="0.5"/><text x="58.5" y="229.5">WL1</text></g>
        <!-- Row X: y=237 -->
        <g data-loc="XR3" data-cell-id="cell-xr3"><rect x="17" y="237" width="15" height="5" fill="white" stroke="#000" stroke-width="0.5"/><text x="24.5" y="239.5">XR3</text></g><g data-loc="XL3" data-cell-id="cell-xl3"><rect x="17" y="242" width="15" height="5" fill="white" stroke="#000" stroke-width="0.5"/><text x="24.5" y="244.5">XL3</text></g>
        <g data-loc="XR2" data-cell-id="cell-xr2"><rect x="34" y="237" width="15" height="5" fill="white" stroke="#000" stroke-width="0.5"/><text x="41.5" y="239.5">XR2</text></g><g data-loc="XL2" data-cell-id="cell-xl2"><rect x="34" y="242" width="15" height="5" fill="white" stroke="#000" stroke-width="0.5"/><text x="41.5" y="244.5">XL2</text></g>
        <g data-loc="XR1" data-cell-id="cell-xr1"><rect x="51" y="237" width="15" height="5" fill="white" stroke="#000" stroke-width="0.5"/><text x="58.5" y="239.5">XR1</text></g><g data-loc="XL1" data-cell-id="cell-xl1"><rect x="51" y="242" width="15" height="5" fill="white" stroke="#000" stroke-width="0.5"/><text x="58.5" y="244.5">XL1</text></g>
        <!-- Row Y: y=252 -->
        <g data-loc="YR3" data-cell-id="cell-yr3"><rect x="17" y="252" width="15" height="5" fill="white" stroke="#000" stroke-width="0.5"/><text x="24.5" y="254.5">YR3</text></g><g data-loc="YL3" data-cell-id="cell-yl3"><rect x="17" y="257" width="15" height="5" fill="white" stroke="#000" stroke-width="0.5"/><text x="24.5" y="259.5">YL3</text></g>
        <g data-loc="YR2" data-cell-id="cell-yr2"><rect x="34" y="252" width="15" height="5" fill="white" stroke="#000" stroke-width="0.5"/><text x="41.5" y="254.5">YR2</text></g><g data-loc="YL2" data-cell-id="cell-yl2"><rect x="34" y="257" width="15" height="5" fill="white" stroke="#000" stroke-width="0.5"/><text x="41.5" y="259.5">YL2</text></g>
        <g data-loc="YR1" data-cell-id="cell-yr1"><rect x="51" y="252" width="15" height="5" fill="white" stroke="#000" stroke-width="0.5"/><text x="58.5" y="254.5">YR1</text></g><g data-loc="YL1" data-cell-id="cell-yl1"><rect x="51" y="257" width="15" height="5" fill="white" stroke="#000" stroke-width="0.5"/><text x="58.5" y="259.5">YL1</text></g>
        <!-- Row Z: y=267 -->
        <g data-loc="ZR3" data-cell-id="cell-zr3"><rect x="17" y="267" width="15" height="5" fill="white" stroke="#000" stroke-width="0.5"/><text x="24.5" y="269.5">ZR3</text></g><g data-loc="ZL3" data-cell-id="cell-zl3"><rect x="17" y="272" width="15" height="5" fill="white" stroke="#000" stroke-width="0.5"/><text x="24.5" y="274.5">ZL3</text></g>
        <g data-loc="ZR2" data-cell-id="cell-zr2"><rect x="34" y="267" width="15" height="5" fill="white" stroke="#000" stroke-width="0.5"/><text x="41.5" y="269.5">ZR2</text></g><g data-loc="ZL2" data-cell-id="cell-zl2"><rect x="34" y="272" width="15" height="5" fill="white" stroke="#000" stroke-width="0.5"/><text x="41.5" y="274.5">ZL2</text></g>
        <g data-loc="ZR1" data-cell-id="cell-zr1"><rect x="51" y="267" width="15" height="5" fill="white" stroke="#000" stroke-width="0.5"/><text x="58.5" y="269.5">ZR1</text></g><g data-loc="ZL1" data-cell-id="cell-zl1"><rect x="51" y="272" width="15" height="5" fill="white" stroke="#000" stroke-width="0.5"/><text x="58.5" y="274.5">ZL1</text></g>
        <!-- Row H: y=282 -->
        <g data-loc="HR3" data-cell-id="cell-hr3"><rect x="17" y="282" width="15" height="5" fill="white" stroke="#000" stroke-width="0.5"/><text x="24.5" y="284.5">HR3</text></g><g data-loc="HL3" data-cell-id="cell-hl3"><rect x="17" y="287" width="15" height="5" fill="white" stroke="#000" stroke-width="0.5"/><text x="24.5" y="289.5">HL3</text></g>
        <g data-loc="HR2" data-cell-id="cell-hr2"><rect x="34" y="282" width="15" height="5" fill="white" stroke="#000" stroke-width="0.5"/><text x="41.5" y="284.5">HR2</text></g><g data-loc="HL2" data-cell-id="cell-hl2"><rect x="34" y="287" width="15" height="5" fill="white" stroke="#000" stroke-width="0.5"/><text x="41.5" y="289.5">HL2</text></g>
        <g data-loc="HR1" data-cell-id="cell-hr1"><rect x="51" y="282" width="15" height="5" fill="white" stroke="#000" stroke-width="0.5"/><text x="58.5" y="284.5">HR1</text></g><g data-loc="HL1" data-cell-id="cell-hl1"><rect x="51" y="287" width="15" height="5" fill="white" stroke="#000" stroke-width="0.5"/><text x="58.5" y="289.5">HL1</text></g>
      </g>
      
      <!-- Kệ K (bên trong office) -->
      <g data-loc="K" data-cell-id="cell-k">
        <rect x="79" y="150" width="5" height="80" fill="white" stroke="#000" stroke-width="0.5" stroke-dasharray="3,3"/>
        <text x="81.5" y="190" font-size="8">K</text>
      </g>

      <!-- WH OFFICE -->
      <g data-loc="WH OFFICE">
        <rect x="15" y="330" width="70" height="80" fill="none" stroke="#333" stroke-width="1"/>
        <text x="50" y="370" font-size="10">WH OFFICE</text>
      </g>
      <!-- Kệ trong WH Office -->
      <g data-loc="VP" data-cell-id="cell-vp">
        <rect x="65" y="400" width="20" height="10" fill="white" stroke="#000" stroke-width="0.5"/>
        <text x="75" y="405" font-size="6" text-anchor="middle" dominant-baseline="middle">VP</text>
      </g>
      
      <!-- Khu vực J -->
      <g data-loc="J">
        <rect x="15" y="410" width="70" height="60" fill="none" stroke="#333" stroke-width="1" stroke-dasharray="3,3"/>
        <text x="50" y="440" font-size="10">J</text>
      </g>

      <!-- Forklift Area -->
      <g data-loc="Forklift">
        <rect x="15" y="480" width="70" height="28" fill="none" stroke="#333" stroke-width="1" stroke-dasharray="3,3"/>
        <text x="50" y="494" font-size="10" text-anchor="middle" dominant-baseline="middle">Forklift</text>
      </g>
  </g>

  <!-- Kệ IQC và W.O -->
  <g font-family="Arial">
    <g data-loc="IQC" data-cell-id="cell-iqc">
      <rect x="100" y="210" width="10" height="180" fill="white" stroke="#000" stroke-width="0.5" stroke-dasharray="3,3"/>
      <text x="105" y="300" font-size="8" transform="rotate(-90 105,300)" text-anchor="middle" dominant-baseline="middle">IQC</text>
    </g>
    <g data-loc="WO" data-cell-id="cell-wo">
      <rect x="100" y="90" width="10" height="90" fill="white" stroke="#000" stroke-width="0.5" stroke-dasharray="3,3"/>
      <text x="105" y="135" font-size="8" transform="rotate(-90 105,135)" text-anchor="middle" dominant-baseline="middle">W.O</text>
    </g>
  </g>

  <!-- INBOUND & Outbound Stages -->
  <g font-family="Arial" text-anchor="middle" dominant-baseline="middle">
    <!-- Inbound Stage -->
    <g data-loc="Inbound Stage">
      <rect x="100" y="420" width="100" height="80" fill="none" stroke="#333" stroke-width="1" stroke-dasharray="3,3"/>
      <text x="150" y="460" font-size="8">Inbound Stage</text>
    </g>
    <!-- Outbound Stage -->
    <g data-loc="Outbound Stage">
      <rect x="235" y="420" width="70" height="80" fill="none" stroke="#333" stroke-width="1" stroke-dasharray="3,3"/>
      <text x="270" y="460" font-size="8">Outbound Stage</text>
    </g>
  </g>

  <!-- Các dãy kệ -->
  <g font-family="Arial" font-size="6" text-anchor="middle" dominant-baseline="middle">
    <!-- Dãy A (x=295) -->
    <g data-loc="A9" data-cell-id="cell-a9"><rect x="295" y="90" width="10" height="30" fill="white" stroke="#000" stroke-width="0.5"/><text x="300" y="105">A9</text></g>
    <g data-loc="A8" data-cell-id="cell-a8"><rect x="295" y="120" width="10" height="30" fill="white" stroke="#000" stroke-width="0.5"/><text x="300" y="135">A8</text></g>
    <g data-loc="A7" data-cell-id="cell-a7"><rect x="295" y="150" width="10" height="30" fill="white" stroke="#000" stroke-width="0.5"/><text x="300" y="165">A7</text></g>
    <g data-loc="A6" data-cell-id="cell-a6"><rect x="295" y="210" width="10" height="30" fill="white" stroke="#000" stroke-width="0.5"/><text x="300" y="225">A6</text></g>
    <g data-loc="A5" data-cell-id="cell-a5"><rect x="295" y="240" width="10" height="30" fill="white" stroke="#000" stroke-width="0.5"/><text x="300" y="255">A5</text></g>
    <g data-loc="A4" data-cell-id="cell-a4"><rect x="295" y="270" width="10" height="30" fill="white" stroke="#000" stroke-width="0.5"/><text x="300" y="285">A4</text></g>
    <g data-loc="A3" data-cell-id="cell-a3"><rect x="295" y="300" width="10" height="30" fill="white" stroke="#000" stroke-width="0.5"/><text x="300" y="315">A3</text></g>
    <g data-loc="A2" data-cell-id="cell-a2"><rect x="295" y="330" width="10" height="30" fill="white" stroke="#000" stroke-width="0.5"/><text x="300" y="345">A2</text></g>
    <g data-loc="A1" data-cell-id="cell-a1"><rect x="295" y="360" width="10" height="30" fill="white" stroke="#000" stroke-width="0.5"/><text x="300" y="375">A1</text></g>
    <!-- Dãy B (x=255) -->
    <g data-loc="B9" data-cell-id="cell-b9"><rect x="255" y="90" width="10" height="30" fill="white" stroke="#000" stroke-width="0.5"/><text x="260" y="105">B9</text></g>
    <g data-loc="B8" data-cell-id="cell-b8"><rect x="255" y="120" width="10" height="30" fill="white" stroke="#000" stroke-width="0.5"/><text x="260" y="135">B8</text></g>
    <g data-loc="B7" data-cell-id="cell-b7"><rect x="255" y="150" width="10" height="30" fill="white" stroke="#000" stroke-width="0.5"/><text x="260" y="165">B7</text></g>
    <g data-loc="B6" data-cell-id="cell-b6"><rect x="255" y="210" width="10" height="30" fill="white" stroke="#000" stroke-width="0.5"/><text x="260" y="225">B6</text></g>
    <g data-loc="B5" data-cell-id="cell-b5"><rect x="255" y="240" width="10" height="30" fill="white" stroke="#000" stroke-width="0.5"/><text x="260" y="255">B5</text></g>
    <g data-loc="B4" data-cell-id="cell-b4"><rect x="255" y="270" width="10" height="30" fill="white" stroke="#000" stroke-width="0.5"/><text x="260" y="285">B4</text></g>
    <g data-loc="B3" data-cell-id="cell-b3"><rect x="255" y="300" width="10" height="30" fill="white" stroke="#000" stroke-width="0.5"/><text x="260" y="315">B3</text></g>
    <g data-loc="B2" data-cell-id="cell-b2"><rect x="255" y="330" width="10" height="30" fill="white" stroke="#000" stroke-width="0.5"/><text x="260" y="345">B2</text></g>
    <g data-loc="B1" data-cell-id="cell-b1"><rect x="255" y="360" width="10" height="30" fill="white" stroke="#000" stroke-width="0.5"/><text x="260" y="375">B1</text></g>
    <!-- Dãy C (x=240) -->
    <g data-loc="C9" data-cell-id="cell-c9"><rect x="240" y="90" width="10" height="30" fill="white" stroke="#000" stroke-width="0.5"/><text x="245" y="105">C9</text></g>
    <g data-loc="C8" data-cell-id="cell-c8"><rect x="240" y="120" width="10" height="30" fill="white" stroke="#000" stroke-width="0.5"/><text x="245" y="135">C8</text></g>
    <g data-loc="C7" data-cell-id="cell-c7"><rect x="240" y="150" width="10" height="30" fill="white" stroke="#000" stroke-width="0.5"/><text x="245" y="165">C7</text></g>
    <g data-loc="C6" data-cell-id="cell-c6"><rect x="240" y="210" width="10" height="30" fill="white" stroke="#000" stroke-width="0.5"/><text x="245" y="225">C6</text></g>
    <g data-loc="C5" data-cell-id="cell-c5"><rect x="240" y="240" width="10" height="30" fill="white" stroke="#000" stroke-width="0.5"/><text x="245" y="255">C5</text></g>
    <g data-loc="C4" data-cell-id="cell-c4"><rect x="240" y="270" width="10" height="30" fill="white" stroke="#000" stroke-width="0.5"/><text x="245" y="285">C4</text></g>
    <g data-loc="C3" data-cell-id="cell-c3"><rect x="240" y="300" width="10" height="30" fill="white" stroke="#000" stroke-width="0.5"/><text x="245" y="315">C3</text></g>
    <g data-loc="C2" data-cell-id="cell-c2"><rect x="240" y="330" width="10" height="30" fill="white" stroke="#000" stroke-width="0.5"/><text x="245" y="345">C2</text></g>
    <g data-loc="C1" data-cell-id="cell-c1"><rect x="240" y="360" width="10" height="30" fill="white" stroke="#000" stroke-width="0.5"/><text x="245" y="375">C1</text></g>
    <!-- Dãy D (x=200) -->
    <g data-loc="D9" data-cell-id="cell-d9"><rect x="200" y="90" width="10" height="30" fill="white" stroke="#000" stroke-width="0.5"/><text x="205" y="105">D9</text></g>
    <g data-loc="D8" data-cell-id="cell-d8"><rect x="200" y="120" width="10" height="30" fill="white" stroke="#000" stroke-width="0.5"/><text x="205" y="135">D8</text></g>
    <g data-loc="D7" data-cell-id="cell-d7"><rect x="200" y="150" width="10" height="30" fill="white" stroke="#000" stroke-width="0.5"/><text x="205" y="165">D7</text></g>
    <g data-loc="D6" data-cell-id="cell-d6"><rect x="200" y="210" width="10" height="30" fill="white" stroke="#000" stroke-width="0.5"/><text x="205" y="225">D6</text></g>
    <g data-loc="D5" data-cell-id="cell-d5"><rect x="200" y="240" width="10" height="30" fill="white" stroke="#000" stroke-width="0.5"/><text x="205" y="255">D5</text></g>
    <g data-loc="D4" data-cell-id="cell-d4"><rect x="200" y="270" width="10" height="30" fill="white" stroke="#000" stroke-width="0.5"/><text x="205" y="285">D4</text></g>
    <g data-loc="D3" data-cell-id="cell-d3"><rect x="200" y="300" width="10" height="30" fill="white" stroke="#000" stroke-width="0.5"/><text x="205" y="315">D3</text></g>
    <g data-loc="D2" data-cell-id="cell-d2"><rect x="200" y="330" width="10" height="30" fill="white" stroke="#000" stroke-width="0.5"/><text x="205" y="345">D2</text></g>
    <g data-loc="D1" data-cell-id="cell-d1"><rect x="200" y="360" width="10" height="30" fill="white" stroke="#000" stroke-width="0.5"/><text x="205" y="375">D1</text></g>
    <!-- Dãy E (x=185) -->
    <g data-loc="E9" data-cell-id="cell-e9"><rect x="185" y="90" width="10" height="30" fill="white" stroke="#000" stroke-width="0.5"/><text x="190" y="105">E9</text></g>
    <g data-loc="E8" data-cell-id="cell-e8"><rect x="185" y="120" width="10" height="30" fill="white" stroke="#000" stroke-width="0.5"/><text x="190" y="135">E8</text></g>
    <g data-loc="E7" data-cell-id="cell-e7"><rect x="185" y="150" width="10" height="30" fill="white" stroke="#000" stroke-width="0.5"/><text x="190" y="165">E7</text></g>
    <g data-loc="E6" data-cell-id="cell-e6"><rect x="185" y="210" width="10" height="30" fill="white" stroke="#000" stroke-width="0.5"/><text x="190" y="225">E6</text></g>
    <g data-loc="E5" data-cell-id="cell-e5"><rect x="185" y="240" width="10" height="30" fill="white" stroke="#000" stroke-width="0.5"/><text x="190" y="255">E5</text></g>
    <g data-loc="E4" data-cell-id="cell-e4"><rect x="185" y="270" width="10" height="30" fill="white" stroke="#000" stroke-width="0.5"/><text x="190" y="285">E4</text></g>
    <g data-loc="E3" data-cell-id="cell-e3"><rect x="185" y="300" width="10" height="30" fill="white" stroke="#000" stroke-width="0.5"/><text x="190" y="315">E3</text></g>
    <g data-loc="E2" data-cell-id="cell-e2"><rect x="185" y="330" width="10" height="30" fill="white" stroke="#000" stroke-width="0.5"/><text x="190" y="345">E2</text></g>
    <g data-loc="E1" data-cell-id="cell-e1"><rect x="185" y="360" width="10" height="30" fill="white" stroke="#000" stroke-width="0.5"/><text x="190" y="375">E1</text></g>
    <!-- Dãy F (x=145) -->
    <g data-loc="F9" data-cell-id="cell-f9"><rect x="145" y="90" width="10" height="30" fill="white" stroke="#000" stroke-width="0.5"/><text x="150" y="105">F9</text></g>
    <g data-loc="F8" data-cell-id="cell-f8"><rect x="145" y="120" width="10" height="30" fill="white" stroke="#000" stroke-width="0.5"/><text x="150" y="135">F8</text></g>
    <g data-loc="F7" data-cell-id="cell-f7"><rect x="145" y="150" width="10" height="30" fill="white" stroke="#000" stroke-width="0.5"/><text x="150" y="165">F7</text></g>
    <g data-loc="F6" data-cell-id="cell-f6"><rect x="145" y="210" width="10" height="30" fill="white" stroke="#000" stroke-width="0.5"/><text x="150" y="225">F6</text></g>
    <g data-loc="F5" data-cell-id="cell-f5"><rect x="145" y="240" width="10" height="30" fill="white" stroke="#000" stroke-width="0.5"/><text x="150" y="255">F5</text></g>
    <g data-loc="F4" data-cell-id="cell-f4"><rect x="145" y="270" width="10" height="30" fill="white" stroke="#000" stroke-width="0.5"/><text x="150" y="285">F4</text></g>
    <g data-loc="F3" data-cell-id="cell-f3"><rect x="145" y="300" width="10" height="30" fill="white" stroke="#000" stroke-width="0.5"/><text x="150" y="315">F3</text></g>
    <g data-loc="F2" data-cell-id="cell-f2"><rect x="145" y="330" width="10" height="30" fill="white" stroke="#000" stroke-width="0.5"/><text x="150" y="345">F2</text></g>
    <g data-loc="F1" data-cell-id="cell-f1"><rect x="145" y="360" width="10" height="30" fill="white" stroke="#000" stroke-width="0.5"/><text x="150" y="375">F1</text></g>
    <!-- Dãy G (x=130) -->
    <g data-loc="G9" data-cell-id="cell-g9"><rect x="130" y="90" width="10" height="30" fill="white" stroke="#000" stroke-width="0.5"/><text x="135" y="105">G9</text></g>
    <g data-loc="G8" data-cell-id="cell-g8"><rect x="130" y="120" width="10" height="30" fill="white" stroke="#000" stroke-width="0.5"/><text x="135" y="135">G8</text></g>
    <g data-loc="G7" data-cell-id="cell-g7"><rect x="130" y="150" width="10" height="30" fill="white" stroke="#000" stroke-width="0.5"/><text x="135" y="165">G7</text></g>
    <g data-loc="G6" data-cell-id="cell-g6"><rect x="130" y="210" width="10" height="30" fill="white" stroke="#000" stroke-width="0.5"/><text x="135" y="225">G6</text></g>
    <g data-loc="G5" data-cell-id="cell-g5"><rect x="130" y="240" width="10" height="30" fill="white" stroke="#000" stroke-width="0.5"/><text x="135" y="255">G5</text></g>
    <g data-loc="G4" data-cell-id="cell-g4"><rect x="130" y="270" width="10" height="30" fill="white" stroke="#000" stroke-width="0.5"/><text x="135" y="285">G4</text></g>
    <g data-loc="G3" data-cell-id="cell-g3"><rect x="130" y="300" width="10" height="30" fill="white" stroke="#000" stroke-width="0.5"/><text x="135" y="315">G3</text></g>
    <g data-loc="G2" data-cell-id="cell-g2"><rect x="130" y="330" width="10" height="30" fill="white" stroke="#000" stroke-width="0.5"/><text x="135" y="345">G2</text></g>
    <g data-loc="G1" data-cell-id="cell-g1"><rect x="130" y="360" width="10" height="30" fill="white" stroke="#000" stroke-width="0.5"/><text x="135" y="375">G1</text></g>
  </g>
</svg>
