<svg width="320" height="520" viewBox="0 0 320 520" xmlns="http://www.w3.org/2000/svg">
  <!-- 
    Layout kho hàng.
    Quy ước tỉ lệ: 1 mét = 10 pixels.
    Kích thước kho: 30m x 50m (300x500 pixels).
    Kích thước kệ nhỏ: 1m x 3m (10x30 pixels).
  -->

  <!-- Tường kho (30m x 50m) -->
  <rect x="10" y="10" width="300" height="500" fill="#f9f9f9" stroke="#333" stroke-width="2"/>
  
  <!-- Văn phòng & Khu vực trái -->
  <g font-family="Arial" text-anchor="middle" dominant-baseline="middle">
      <!-- Admin Area -->
      <rect x="15" y="12" width="70" height="58" fill="none" stroke="#333" stroke-width="1"/>
      <text x="50" y="41" font-size="10">Admin</text>

      <!-- Quality Office -->
      <rect x="15" y="70" width="70" height="60" fill="none" stroke="#333" stroke-width="1"/>
      <text x="50" y="100" font-size="10">Quality</text>
      
      <!-- Unnamed Office -->
      <rect x="15" y="130" width="70" height="200" fill="none" stroke="#333" stroke-width="1"/>
      <!-- Kệ trong Unnamed Office -->
      <g font-size="4">
        <!-- Horizontal spacing: 0.2m (2px), Vertical spacing: 0.5m (5px) -->
        <g data-loc="Q1" data-cell-id="cell-q1"><rect x="17" y="132" width="15" height="10" fill="white" stroke="#000" stroke-width="0.5"/><text x="24.5" y="137">Q1</text></g>
        <g data-loc="Q2" data-cell-id="cell-q2"><rect x="34" y="132" width="15" height="10" fill="white" stroke="#000" stroke-width="0.5"/><text x="41.5" y="137">Q2</text></g>
        <g data-loc="Q3" data-cell-id="cell-q3"><rect x="51" y="132" width="15" height="10" fill="white" stroke="#000" stroke-width="0.5"/><text x="58.5" y="137">Q3</text></g>
        <g data-loc="R1" data-cell-id="cell-r1"><rect x="17" y="147" width="15" height="10" fill="white" stroke="#000" stroke-width="0.5"/><text x="24.5" y="152">R1</text></g>
        <g data-loc="R2" data-cell-id="cell-r2"><rect x="34" y="147" width="15" height="10" fill="white" stroke="#000" stroke-width="0.5"/><text x="41.5" y="152">R2</text></g>
        <g data-loc="R3" data-cell-id="cell-r3"><rect x="51" y="147" width="15" height="10" fill="white" stroke="#000" stroke-width="0.5"/><text x="58.5" y="152">R3</text></g>
        <g data-loc="S1" data-cell-id="cell-s1"><rect x="17" y="162" width="15" height="10" fill="white" stroke="#000" stroke-width="0.5"/><text x="24.5" y="167">S1</text></g>
        <g data-loc="S2" data-cell-id="cell-s2"><rect x="34" y="162" width="15" height="10" fill="white" stroke="#000" stroke-width="0.5"/><text x="41.5" y="167">S2</text></g>
        <g data-loc="S3" data-cell-id="cell-s3"><rect x="51" y="162" width="15" height="10" fill="white" stroke="#000" stroke-width="0.5"/><text x="58.5" y="167">S3</text></g>
        <g data-loc="T1" data-cell-id="cell-t1"><rect x="17" y="177" width="15" height="10" fill="white" stroke="#000" stroke-width="0.5"/><text x="24.5" y="182">T1</text></g>
        <g data-loc="T2" data-cell-id="cell-t2"><rect x="34" y="177" width="15" height="10" fill="white" stroke="#000" stroke-width="0.5"/><text x="41.5" y="182">T2</text></g>
        <g data-loc="T3" data-cell-id="cell-t3"><rect x="51" y="177" width="15" height="10" fill="white" stroke="#000" stroke-width="0.5"/><text x="58.5" y="182">T3</text></g>
        <g data-loc="U1" data-cell-id="cell-u1"><rect x="17" y="192" width="15" height="10" fill="white" stroke="#000" stroke-width="0.5"/><text x="24.5" y="197">U1</text></g>
        <g data-loc="U2" data-cell-id="cell-u2"><rect x="34" y="192" width="15" height="10" fill="white" stroke="#000" stroke-width="0.5"/><text x="41.5" y="197">U2</text></g>
        <g data-loc="U3" data-cell-id="cell-u3"><rect x="51" y="192" width="15" height="10" fill="white" stroke="#000" stroke-width="0.5"/><text x="58.5" y="197">U3</text></g>
        <g data-loc="V1" data-cell-id="cell-v1"><rect x="17" y="207" width="15" height="10" fill="white" stroke="#000" stroke-width="0.5"/><text x="24.5" y="212">V1</text></g>
        <g data-loc="V2" data-cell-id="cell-v2"><rect x="34" y="207" width="15" height="10" fill="white" stroke="#000" stroke-width="0.5"/><text x="41.5" y="212">V2</text></g>
        <g data-loc="V3" data-cell-id="cell-v3"><rect x="51" y="207" width="15" height="10" fill="white" stroke="#000" stroke-width="0.5"/><text x="58.5" y="212">V3</text></g>
        <g data-loc="W1" data-cell-id="cell-w1"><rect x="17" y="222" width="15" height="10" fill="white" stroke="#000" stroke-width="0.5"/><text x="24.5" y="227">W1</text></g>
        <g data-loc="W2" data-cell-id="cell-w2"><rect x="34" y="222" width="15" height="10" fill="white" stroke="#000" stroke-width="0.5"/><text x="41.5" y="227">W2</text></g>
        <g data-loc="W3" data-cell-id="cell-w3"><rect x="51" y="222" width="15" height="10" fill="white" stroke="#000" stroke-width="0.5"/><text x="58.5" y="227">W3</text></g>
        <g data-loc="X1" data-cell-id="cell-x1"><rect x="17" y="237" width="15" height="10" fill="white" stroke="#000" stroke-width="0.5"/><text x="24.5" y="242">X1</text></g>
        <g data-loc="X2" data-cell-id="cell-x2"><rect x="34" y="237" width="15" height="10" fill="white" stroke="#000" stroke-width="0.5"/><text x="41.5" y="242">X2</text></g>
        <g data-loc="X3" data-cell-id="cell-x3"><rect x="51" y="237" width="15" height="10" fill="white" stroke="#000" stroke-width="0.5"/><text x="58.5" y="242">X3</text></g>
        <g data-loc="Y1" data-cell-id="cell-y1"><rect x="17" y="252" width="15" height="10" fill="white" stroke="#000" stroke-width="0.5"/><text x="24.5" y="257">Y1</text></g>
        <g data-loc="Y2" data-cell-id="cell-y2"><rect x="34" y="252" width="15" height="10" fill="white" stroke="#000" stroke-width="0.5"/><text x="41.5" y="257">Y2</text></g>
        <g data-loc="Y3" data-cell-id="cell-y3"><rect x="51" y="252" width="15" height="10" fill="white" stroke="#000" stroke-width="0.5"/><text x="58.5" y="257">Y3</text></g>
        <g data-loc="Z1" data-cell-id="cell-z1"><rect x="17" y="267" width="15" height="10" fill="white" stroke="#000" stroke-width="0.5"/><text x="24.5" y="272">Z1</text></g>
        <g data-loc="Z2" data-cell-id="cell-z2"><rect x="34" y="267" width="15" height="10" fill="white" stroke="#000" stroke-width="0.5"/><text x="41.5" y="272">Z2</text></g>
        <g data-loc="Z3" data-cell-id="cell-z3"><rect x="51" y="267" width="15" height="10" fill="white" stroke="#000" stroke-width="0.5"/><text x="58.5" y="272">Z3</text></g>
        <g data-loc="H1" data-cell-id="cell-h1"><rect x="17" y="282" width="15" height="10" fill="white" stroke="#000" stroke-width="0.5"/><text x="24.5" y="287">H1</text></g>
        <g data-loc="H2" data-cell-id="cell-h2"><rect x="34" y="282" width="15" height="10" fill="white" stroke="#000" stroke-width="0.5"/><text x="41.5" y="287">H2</text></g>
        <g data-loc="H3" data-cell-id="cell-h3"><rect x="51" y="282" width="15" height="10" fill="white" stroke="#000" stroke-width="0.5"/><text x="58.5" y="287">H3</text></g>
      </g>
      
      <!-- Kệ K (bên trong office) -->
      <g data-loc="K" data-cell-id="cell-k">
        <rect x="80" y="150" width="5" height="80" fill="white" stroke="#000" stroke-width="0.5" stroke-dasharray="3,3"/>
        <text x="82.5" y="190" font-size="8">K</text>
      </g>

      <!-- WH OFFICE -->
      <rect x="15" y="330" width="70" height="80" fill="none" stroke="#333" stroke-width="1"/>
      <text x="50" y="370" font-size="10">WH OFFICE</text>
      <!-- Kệ trong WH Office -->
      <g data-loc="VP" data-cell-id="cell-vp">
        <rect x="65" y="400" width="20" height="10" fill="white" stroke="#000" stroke-width="0.5"/>
        <text x="75" y="405" font-size="6" text-anchor="middle" dominant-baseline="middle">VP</text>
      </g>
      
      <!-- Khu vực J -->
      <rect x="15" y="410" width="70" height="60" fill="none" stroke="#333" stroke-width="1" stroke-dasharray="3,3"/>
      <text x="50" y="440" font-size="10">J</text>

      <!-- Forklift Area -->
      <rect x="15" y="480" width="70" height="28" fill="none" stroke="#333" stroke-width="1" stroke-dasharray="3,3"/>
      <text x="50" y="494" font-size="10" text-anchor="middle" dominant-baseline="middle">Forklift</text>
  </g>

  <!-- Kệ IQC và W.O -->
  <g font-family="Arial">
    <g data-loc="IQC" data-cell-id="cell-iqc">
      <rect x="100" y="210" width="10" height="180" fill="white" stroke="#000" stroke-width="0.5" stroke-dasharray="3,3"/>
      <text x="105" y="300" font-size="8" transform="rotate(-90 105,300)" text-anchor="middle" dominant-baseline="middle">IQC</text>
    </g>
    <g data-loc="WO" data-cell-id="cell-wo">
      <rect x="100" y="90" width="10" height="90" fill="white" stroke="#000" stroke-width="0.5" stroke-dasharray="3,3"/>
      <text x="105" y="135" font-size="8" transform="rotate(-90 105,135)" text-anchor="middle" dominant-baseline="middle">W.O</text>
    </g>
  </g>

  <!-- INBOUND & FGS OUTBOUND Areas -->
  <g font-family="Arial" text-anchor="middle" dominant-baseline="middle">
    <!-- INBOUND Area -->
    <rect x="100" y="420" width="100" height="80" fill="none" stroke="#333" stroke-width="1" stroke-dasharray="3,3"/>
    <text x="150" y="460" font-size="12">INBOUND</text>
    <!-- FGS OUTBOUND Area -->
    <rect x="235" y="420" width="70" height="80" fill="none" stroke="#333" stroke-width="1" stroke-dasharray="3,3"/>
    <text x="270" y="460" font-size="8" transform="rotate(-90 270,460)">FGS OUTBOUND</text>
  </g>

  <!-- Các dãy kệ -->
  <g font-family="Arial" font-size="6" text-anchor="middle" dominant-baseline="middle">
    <!-- Dãy A (x=295) -->
    <g data-loc="A9" data-cell-id="cell-a9"><rect x="295" y="90" width="10" height="30" fill="white" stroke="#000" stroke-width="0.5"/><text x="300" y="105">A9</text></g>
    <g data-loc="A8" data-cell-id="cell-a8"><rect x="295" y="120" width="10" height="30" fill="white" stroke="#000" stroke-width="0.5"/><text x="300" y="135">A8</text></g>
    <g data-loc="A7" data-cell-id="cell-a7"><rect x="295" y="150" width="10" height="30" fill="white" stroke="#000" stroke-width="0.5"/><text x="300" y="165">A7</text></g>
    <g data-loc="A6" data-cell-id="cell-a6"><rect x="295" y="210" width="10" height="30" fill="white" stroke="#000" stroke-width="0.5"/><text x="300" y="225">A6</text></g>
    <g data-loc="A5" data-cell-id="cell-a5"><rect x="295" y="240" width="10" height="30" fill="white" stroke="#000" stroke-width="0.5"/><text x="300" y="255">A5</text></g>
    <g data-loc="A4" data-cell-id="cell-a4"><rect x="295" y="270" width="10" height="30" fill="white" stroke="#000" stroke-width="0.5"/><text x="300" y="285">A4</text></g>
    <g data-loc="A3" data-cell-id="cell-a3"><rect x="295" y="300" width="10" height="30" fill="white" stroke="#000" stroke-width="0.5"/><text x="300" y="315">A3</text></g>
    <g data-loc="A2" data-cell-id="cell-a2"><rect x="295" y="330" width="10" height="30" fill="white" stroke="#000" stroke-width="0.5"/><text x="300" y="345">A2</text></g>
    <g data-loc="A1" data-cell-id="cell-a1"><rect x="295" y="360" width="10" height="30" fill="white" stroke="#000" stroke-width="0.5"/><text x="300" y="375">A1</text></g>
    <!-- Dãy B (x=255) -->
    <g data-loc="B9" data-cell-id="cell-b9"><rect x="255" y="90" width="10" height="30" fill="white" stroke="#000" stroke-width="0.5"/><text x="260" y="105">B9</text></g>
    <g data-loc="B8" data-cell-id="cell-b8"><rect x="255" y="120" width="10" height="30" fill="white" stroke="#000" stroke-width="0.5"/><text x="260" y="135">B8</text></g>
    <g data-loc="B7" data-cell-id="cell-b7"><rect x="255" y="150" width="10" height="30" fill="white" stroke="#000" stroke-width="0.5"/><text x="260" y="165">B7</text></g>
    <g data-loc="B6" data-cell-id="cell-b6"><rect x="255" y="210" width="10" height="30" fill="white" stroke="#000" stroke-width="0.5"/><text x="260" y="225">B6</text></g>
    <g data-loc="B5" data-cell-id="cell-b5"><rect x="255" y="240" width="10" height="30" fill="white" stroke="#000" stroke-width="0.5"/><text x="260" y="255">B5</text></g>
    <g data-loc="B4" data-cell-id="cell-b4"><rect x="255" y="270" width="10" height="30" fill="white" stroke="#000" stroke-width="0.5"/><text x="260" y="285">B4</text></g>
    <g data-loc="B3" data-cell-id="cell-b3"><rect x="255" y="300" width="10" height="30" fill="white" stroke="#000" stroke-width="0.5"/><text x="260" y="315">B3</text></g>
    <g data-loc="B2" data-cell-id="cell-b2"><rect x="255" y="330" width="10" height="30" fill="white" stroke="#000" stroke-width="0.5"/><text x="260" y="345">B2</text></g>
    <g data-loc="B1" data-cell-id="cell-b1"><rect x="255" y="360" width="10" height="30" fill="white" stroke="#000" stroke-width="0.5"/><text x="260" y="375">B1</text></g>
    <!-- Dãy C (x=240) -->
    <g data-loc="C9" data-cell-id="cell-c9"><rect x="240" y="90" width="10" height="30" fill="white" stroke="#000" stroke-width="0.5"/><text x="245" y="105">C9</text></g>
    <g data-loc="C8" data-cell-id="cell-c8"><rect x="240" y="120" width="10" height="30" fill="white" stroke="#000" stroke-width="0.5"/><text x="245" y="135">C8</text></g>
    <g data-loc="C7" data-cell-id="cell-c7"><rect x="240" y="150" width="10" height="30" fill="white" stroke="#000" stroke-width="0.5"/><text x="245" y="165">C7</text></g>
    <g data-loc="C6" data-cell-id="cell-c6"><rect x="240" y="210" width="10" height="30" fill="white" stroke="#000" stroke-width="0.5"/><text x="245" y="225">C6</text></g>
    <g data-loc="C5" data-cell-id="cell-c5"><rect x="240" y="240" width="10" height="30" fill="white" stroke="#000" stroke-width="0.5"/><text x="245" y="255">C5</text></g>
    <g data-loc="C4" data-cell-id="cell-c4"><rect x="240" y="270" width="10" height="30" fill="white" stroke="#000" stroke-width="0.5"/><text x="245" y="285">C4</text></g>
    <g data-loc="C3" data-cell-id="cell-c3"><rect x="240" y="300" width="10" height="30" fill="white" stroke="#000" stroke-width="0.5"/><text x="245" y="315">C3</text></g>
    <g data-loc="C2" data-cell-id="cell-c2"><rect x="240" y="330" width="10" height="30" fill="white" stroke="#000" stroke-width="0.5"/><text x="245" y="345">C2</text></g>
    <g data-loc="C1" data-cell-id="cell-c1"><rect x="240" y="360" width="10" height="30" fill="white" stroke="#000" stroke-width="0.5"/><text x="245" y="375">C1</text></g>
    <!-- Dãy D (x=200) -->
    <g data-loc="D9" data-cell-id="cell-d9"><rect x="200" y="90" width="10" height="30" fill="white" stroke="#000" stroke-width="0.5"/><text x="205" y="105">D9</text></g>
    <g data-loc="D8" data-cell-id="cell-d8"><rect x="200" y="120" width="10" height="30" fill="white" stroke="#000" stroke-width="0.5"/><text x="205" y="135">D8</text></g>
    <g data-loc="D7" data-cell-id="cell-d7"><rect x="200" y="150" width="10" height="30" fill="white" stroke="#000" stroke-width="0.5"/><text x="205" y="165">D7</text></g>
    <g data-loc="D6" data-cell-id="cell-d6"><rect x="200" y="210" width="10" height="30" fill="white" stroke="#000" stroke-width="0.5"/><text x="205" y="225">D6</text></g>
    <g data-loc="D5" data-cell-id="cell-d5"><rect x="200" y="240" width="10" height="30" fill="white" stroke="#000" stroke-width="0.5"/><text x="205" y="255">D5</text></g>
    <g data-loc="D4" data-cell-id="cell-d4"><rect x="200" y="270" width="10" height="30" fill="white" stroke="#000" stroke-width="0.5"/><text x="205" y="285">D4</text></g>
    <g data-loc="D3" data-cell-id="cell-d3"><rect x="200" y="300" width="10" height="30" fill="white" stroke="#000" stroke-width="0.5"/><text x="205" y="315">D3</text></g>
    <g data-loc="D2" data-cell-id="cell-d2"><rect x="200" y="330" width="10" height="30" fill="white" stroke="#000" stroke-width="0.5"/><text x="205" y="345">D2</text></g>
    <g data-loc="D1" data-cell-id="cell-d1"><rect x="200" y="360" width="10" height="30" fill="white" stroke="#000" stroke-width="0.5"/><text x="205" y="375">D1</text></g>
    <!-- Dãy E (x=185) -->
    <g data-loc="E9" data-cell-id="cell-e9"><rect x="185" y="90" width="10" height="30" fill="white" stroke="#000" stroke-width="0.5"/><text x="190" y="105">E9</text></g>
    <g data-loc="E8" data-cell-id="cell-e8"><rect x="185" y="120" width="10" height="30" fill="white" stroke="#000" stroke-width="0.5"/><text x="190" y="135">E8</text></g>
    <g data-loc="E7" data-cell-id="cell-e7"><rect x="185" y="150" width="10" height="30" fill="white" stroke="#000" stroke-width="0.5"/><text x="190" y="165">E7</text></g>
    <g data-loc="E6" data-cell-id="cell-e6"><rect x="185" y="210" width="10" height="30" fill="white" stroke="#000" stroke-width="0.5"/><text x="190" y="225">E6</text></g>
    <g data-loc="E5" data-cell-id="cell-e5"><rect x="185" y="240" width="10" height="30" fill="white" stroke="#000" stroke-width="0.5"/><text x="190" y="255">E5</text></g>
    <g data-loc="E4" data-cell-id="cell-e4"><rect x="185" y="270" width="10" height="30" fill="white" stroke="#000" stroke-width="0.5"/><text x="190" y="285">E4</text></g>
    <g data-loc="E3" data-cell-id="cell-e3"><rect x="185" y="300" width="10" height="30" fill="white" stroke="#000" stroke-width="0.5"/><text x="190" y="315">E3</text></g>
    <g data-loc="E2" data-cell-id="cell-e2"><rect x="185" y="330" width="10" height="30" fill="white" stroke="#000" stroke-width="0.5"/><text x="190" y="345">E2</text></g>
    <g data-loc="E1" data-cell-id="cell-e1"><rect x="185" y="360" width="10" height="30" fill="white" stroke="#000" stroke-width="0.5"/><text x="190" y="375">E1</text></g>
    <!-- Dãy F (x=145) -->
    <g data-loc="F9" data-cell-id="cell-f9"><rect x="145" y="90" width="10" height="30" fill="white" stroke="#000" stroke-width="0.5"/><text x="150" y="105">F9</text></g>
    <g data-loc="F8" data-cell-id="cell-f8"><rect x="145" y="120" width="10" height="30" fill="white" stroke="#000" stroke-width="0.5"/><text x="150" y="135">F8</text></g>
    <g data-loc="F7" data-cell-id="cell-f7"><rect x="145" y="150" width="10" height="30" fill="white" stroke="#000" stroke-width="0.5"/><text x="150" y="165">F7</text></g>
    <g data-loc="F6" data-cell-id="cell-f6"><rect x="145" y="210" width="10" height="30" fill="white" stroke="#000" stroke-width="0.5"/><text x="150" y="225">F6</text></g>
    <g data-loc="F5" data-cell-id="cell-f5"><rect x="145" y="240" width="10" height="30" fill="white" stroke="#000" stroke-width="0.5"/><text x="150" y="255">F5</text></g>
    <g data-loc="F4" data-cell-id="cell-f4"><rect x="145" y="270" width="10" height="30" fill="white" stroke="#000" stroke-width="0.5"/><text x="150" y="285">F4</text></g>
    <g data-loc="F3" data-cell-id="cell-f3"><rect x="145" y="300" width="10" height="30" fill="white" stroke="#000" stroke-width="0.5"/><text x="150" y="315">F3</text></g>
    <g data-loc="F2" data-cell-id="cell-f2"><rect x="145" y="330" width="10" height="30" fill="white" stroke="#000" stroke-width="0.5"/><text x="150" y="345">F2</text></g>
    <g data-loc="F1" data-cell-id="cell-f1"><rect x="145" y="360" width="10" height="30" fill="white" stroke="#000" stroke-width="0.5"/><text x="150" y="375">F1</text></g>
    <!-- Dãy G (x=130) -->
    <g data-loc="G9" data-cell-id="cell-g9"><rect x="130" y="90" width="10" height="30" fill="white" stroke="#000" stroke-width="0.5"/><text x="135" y="105">G9</text></g>
    <g data-loc="G8" data-cell-id="cell-g8"><rect x="130" y="120" width="10" height="30" fill="white" stroke="#000" stroke-width="0.5"/><text x="135" y="135">G8</text></g>
    <g data-loc="G7" data-cell-id="cell-g7"><rect x="130" y="150" width="10" height="30" fill="white" stroke="#000" stroke-width="0.5"/><text x="135" y="165">G7</text></g>
    <g data-loc="G6" data-cell-id="cell-g6"><rect x="130" y="210" width="10" height="30" fill="white" stroke="#000" stroke-width="0.5"/><text x="135" y="225">G6</text></g>
    <g data-loc="G5" data-cell-id="cell-g5"><rect x="130" y="240" width="10" height="30" fill="white" stroke="#000" stroke-width="0.5"/><text x="135" y="255">G5</text></g>
    <g data-loc="G4" data-cell-id="cell-g4"><rect x="130" y="270" width="10" height="30" fill="white" stroke="#000" stroke-width="0.5"/><text x="135" y="285">G4</text></g>
    <g data-loc="G3" data-cell-id="cell-g3"><rect x="130" y="300" width="10" height="30" fill="white" stroke="#000" stroke-width="0.5"/><text x="135" y="315">G3</text></g>
    <g data-loc="G2" data-cell-id="cell-g2"><rect x="130" y="330" width="10" height="30" fill="white" stroke="#000" stroke-width="0.5"/><text x="135" y="345">G2</text></g>
    <g data-loc="G1" data-cell-id="cell-g1"><rect x="130" y="360" width="10" height="30" fill="white" stroke="#000" stroke-width="0.5"/><text x="135" y="375">G1</text></g>
  </g>
</svg>
